<svg width="162" height="32" viewBox="0 0 162 32" fill="none" xmlns="http://www.w3.org/2000/svg">
<g clip-path="url(#clip0_617_1054)">
<path d="M15.8835 31.9922C24.7232 31.9922 31.8891 24.8572 31.8891 16.0557C31.8891 7.25415 24.7232 0.11911 15.8835 0.11911C7.04388 0.11911 -0.12207 7.25415 -0.12207 16.0557C-0.12207 24.8572 7.04388 31.9922 15.8835 31.9922Z" fill="#0075FF"/>
<path d="M17.3646 20.3827L7.13867 19.1688C18.4323 13.5278 33.751 5.96781 39.4448 3.36905C37.8065 5.14514 36.056 7.97422 34.2187 11.8191C32.3955 15.6347 31.1562 19.0954 31.144 19.1296L30.9501 19.6747L31.5299 19.7109C37.3913 20.077 41.1266 21.7082 43.1609 22.9372C39.1711 21.8651 34.8672 21.3221 30.3309 21.3221C23.6796 21.3221 17.6939 22.5038 13.8435 23.4954C12.7415 23.779 11.7446 24.0646 10.8759 24.3302L17.3646 20.3827Z" fill="#00C48B"/>
<path d="M37.9068 4.56438C34.0473 9.76492 30.8938 18.5247 30.7302 18.9833L30.3413 20.0735L31.5009 20.1459C33.6715 20.2817 35.721 20.6045 37.5916 21.1054C38.1987 21.2683 38.7876 21.4493 39.3552 21.6485C36.4725 21.1406 33.4554 20.8851 30.3292 20.8851C23.6809 20.8851 17.6952 22.0568 13.8166 23.0504L16.5124 21.4111L18.67 20.0986L16.1589 19.801L8.63893 18.9089C11.8116 17.3269 17.4538 14.521 23.1638 11.71C30.7272 7.98582 35.2301 5.81951 37.9068 4.56438ZM41.6016 2.01489C40.4613 2.01489 5.638 19.4298 5.638 19.4298L16.0559 20.6669L7.1622 26.0766C7.1622 26.0766 17.5427 21.7581 30.3292 21.7581C35.1543 21.7581 40.3219 22.3726 45.4035 24.0672C45.4035 24.0672 41.4653 19.8935 31.5554 19.276C31.5554 19.276 36.4482 5.55802 41.338 2.27336C41.5996 2.09736 41.6804 2.01489 41.6016 2.01489Z" fill="white"/>
<path d="M13.054 13.567C19.2245 9.24347 28.7323 2.59872 32.4292 0.0773926C32.1019 0.77737 31.7837 1.67045 31.4746 2.75159C31.109 4.03186 30.8615 5.22665 30.7716 5.68224L13.054 13.567Z" fill="#14E99F"/>
<path d="M31.6097 1.09264C31.442 1.5593 31.2764 2.07824 31.1138 2.64949C30.7845 3.80505 30.5532 4.8701 30.441 5.42023L16.4475 11.6476C22.2201 7.60766 28.2876 3.37662 31.6097 1.09264ZM33.8046 -1.2738C33.548 -1.2738 9.66992 15.4824 9.66992 15.4824L31.1037 5.94421C31.1037 5.94421 32.1794 0.0869312 33.7379 -1.20742C33.7925 -1.25268 33.8137 -1.2738 33.8046 -1.2738Z" fill="white"/>
<path d="M44.8348 16.9203C44.8348 15.805 45.0317 14.6936 45.4257 13.5863C45.8196 12.4801 46.3974 11.4854 47.159 10.6054C47.9205 9.72541 48.8528 9.01437 49.9558 8.4743C51.0588 7.93423 52.3103 7.6637 53.7113 7.6637C55.3749 7.6637 56.8011 8.03883 57.992 8.78808C59.1829 9.53835 60.0667 10.5139 60.6444 11.7167L58.7798 12.9196C58.5 12.3272 58.1627 11.8304 57.7688 11.4291C57.3748 11.0278 56.9455 10.706 56.4819 10.4616C56.0183 10.2182 55.5405 10.0432 55.0506 9.93862C54.5608 9.83403 54.079 9.78173 53.6062 9.78173C52.5729 9.78173 51.6578 9.99494 50.8619 10.4224C50.0649 10.8498 49.3953 11.407 48.8528 12.0959C48.3094 12.7848 47.9034 13.5602 47.6317 14.4231C47.36 15.286 47.2246 16.1529 47.2246 17.0249C47.2246 18.0014 47.3862 18.9297 47.7105 19.8097C48.0347 20.6897 48.4852 21.4701 49.0629 22.15C49.6407 22.8299 50.3235 23.3699 51.1114 23.7712C51.8992 24.1725 52.7568 24.3726 53.685 24.3726C54.1749 24.3726 54.6789 24.3113 55.1951 24.1896C55.7112 24.0679 56.2062 23.8718 56.6789 23.6013C57.1516 23.3307 57.593 22.9908 58.0051 22.5815C58.4162 22.1721 58.7536 21.6793 59.0162 21.1041L60.9858 22.1762C60.6879 22.8731 60.2727 23.4876 59.7384 24.0196C59.2041 24.5516 58.6 25.0002 57.9263 25.3663C57.2526 25.7324 56.5385 26.012 55.786 26.203C55.0335 26.3951 54.2981 26.4907 53.58 26.4907C52.3022 26.4907 51.1285 26.2121 50.0609 25.6539C48.9932 25.0957 48.069 24.3686 47.2903 23.4705C46.5115 22.5724 45.9065 21.5526 45.4782 20.4111C45.0499 19.2696 44.8348 18.106 44.8348 16.9203Z" fill="#0075FF"/>
<path d="M70.7826 14.6954C69.6271 14.7306 68.6069 15.0263 67.7231 15.5845C66.8393 16.1426 66.2131 16.9181 65.8454 17.9117V26.3315H63.5344V12.682H65.6878V15.846C66.1606 14.9046 66.7817 14.1242 67.5524 13.5057C68.3221 12.8872 69.1453 12.5774 70.021 12.5774C70.1958 12.5774 70.3453 12.5774 70.4675 12.5774C70.5897 12.5774 70.6948 12.5864 70.7826 12.6035V14.6954Z" fill="#0075FF"/>
<path d="M79.1594 26.5928C78.1261 26.5928 77.1807 26.4058 76.3231 26.0306C75.4646 25.6565 74.7292 25.1466 74.1171 24.5009C73.504 23.8563 73.0273 23.102 72.6859 22.2391C72.3445 21.3762 72.1738 20.466 72.1738 19.5066C72.1738 18.5481 72.3445 17.642 72.6859 16.7871C73.0273 15.9333 73.5091 15.183 74.1303 14.5383C74.7515 13.8937 75.4908 13.3838 76.3494 13.0086C77.207 12.6335 78.1524 12.4464 79.1857 12.4464C80.218 12.4464 81.1594 12.6385 82.0088 13.0217C82.8583 13.4049 83.5795 13.9148 84.1754 14.5514C84.7704 15.188 85.23 15.9282 85.5542 16.774C85.8784 17.6198 86.04 18.4958 86.04 19.402C86.04 19.5941 86.036 19.768 86.0269 19.9249C86.0178 20.0818 86.0047 20.2035 85.9875 20.291H74.6161C74.6686 20.9709 74.8262 21.5894 75.0888 22.1476C75.3515 22.7057 75.6929 23.1845 76.113 23.5857C76.5332 23.987 77.01 24.3008 77.5443 24.5271C78.0787 24.7534 78.6433 24.867 79.2382 24.867C79.6584 24.867 80.0695 24.8107 80.4725 24.697C80.8755 24.5844 81.2513 24.4315 81.6018 24.2395C81.9513 24.0474 82.2624 23.812 82.5341 23.5334C82.8058 23.2549 83.0108 22.9411 83.1512 22.5921L85.1471 23.1412C84.9199 23.6471 84.6088 24.1087 84.2148 24.5271C83.8209 24.9455 83.3654 25.3075 82.8492 25.6122C82.3331 25.918 81.7594 26.1573 81.1291 26.3313C80.4988 26.5053 79.8422 26.5928 79.1594 26.5928ZM83.8603 18.5914C83.8078 17.9467 83.6462 17.3493 83.3745 16.8002C83.1027 16.2511 82.7613 15.7844 82.3502 15.4012C81.9381 15.0181 81.4614 14.7173 80.919 14.4991C80.3756 14.2809 79.7988 14.1723 79.1857 14.1723C78.5726 14.1723 77.9948 14.2809 77.4524 14.4991C76.909 14.7173 76.4322 15.0221 76.0211 15.4143C75.609 15.8065 75.2767 16.2732 75.0232 16.8133C74.7697 17.3533 74.6161 17.9467 74.5636 18.5914H83.8603Z" fill="#0075FF"/>
<path d="M94.2334 26.594C93.2879 26.594 92.4122 26.4019 91.6072 26.0187C90.8021 25.6355 90.1102 25.1216 89.5325 24.476C88.9547 23.8313 88.5042 23.081 88.18 22.2272C87.8558 21.3733 87.6942 20.4752 87.6942 19.5339C87.6942 18.5754 87.8467 17.6643 88.1537 16.8014C88.4598 15.9385 88.8891 15.1842 89.4406 14.5395C89.9921 13.8948 90.6486 13.3849 91.4102 13.0098C92.1718 12.6347 93.0071 12.4476 93.9182 12.4476C95.0212 12.4476 96.006 12.7352 96.8727 13.3105C97.7393 13.8858 98.4262 14.5838 98.9342 15.4024V7.24405H101.245V23.5085C101.245 24.0495 101.491 24.3281 101.981 24.3452V26.3325C101.788 26.3677 101.617 26.3939 101.469 26.411C101.319 26.428 101.184 26.4371 101.061 26.4371C100.536 26.4371 100.116 26.3023 99.8009 26.0318C99.4857 25.7613 99.3191 25.4344 99.3019 25.0512L99.2494 23.7699C98.707 24.659 97.9848 25.3519 97.0828 25.8488C96.1808 26.3456 95.2313 26.594 94.2334 26.594ZM94.7849 24.6067C95.205 24.6067 95.6384 24.5283 96.0848 24.3714C96.5313 24.2145 96.9515 23.9962 97.3454 23.7176C97.7393 23.4391 98.0807 23.1122 98.3696 22.7371C98.6585 22.3619 98.8464 21.9657 98.9342 21.5473V17.625C98.7767 17.1896 98.5403 16.7752 98.2252 16.383C97.91 15.9907 97.5555 15.6508 97.1616 15.3632C96.7676 15.0755 96.3474 14.8493 95.901 14.6833C95.4545 14.5174 95.0121 14.4349 94.5748 14.4349C93.892 14.4349 93.2748 14.5787 92.7233 14.8664C92.1718 15.154 91.6991 15.5372 91.3052 16.0169C90.9112 16.4966 90.6092 17.0457 90.3991 17.6643C90.189 18.2838 90.084 18.9154 90.084 19.56C90.084 20.2399 90.2062 20.8896 90.4516 21.5081C90.6961 22.1266 91.0294 22.6627 91.4496 23.1162C91.8698 23.5698 92.3647 23.9319 92.9334 24.2014C93.5021 24.4719 94.1192 24.6067 94.7849 24.6067Z" fill="#0075FF"/>
<path d="M105.133 10.1204V7.24405H107.444V10.1204H105.133ZM105.133 26.3325V12.683H107.444V26.3325H105.133Z" fill="#0075FF"/>
<path d="M118.184 25.6535C118.043 25.7229 117.859 25.8064 117.632 25.9019C117.405 25.9984 117.146 26.094 116.857 26.1895C116.569 26.2851 116.253 26.3635 115.912 26.4249C115.571 26.4862 115.216 26.5164 114.848 26.5164C114.008 26.5164 113.282 26.2851 112.669 25.8235C112.056 25.3618 111.749 24.6427 111.749 23.6662V14.488H109.885V12.6838H111.749V8.13394H114.061V12.6838H117.133V14.488H114.061V22.9602C114.096 23.4661 114.262 23.8321 114.56 24.0584C114.857 24.2847 115.207 24.3983 115.61 24.3983C116.066 24.3983 116.481 24.3239 116.857 24.1761C117.234 24.0283 117.492 23.9106 117.632 23.8231L118.184 25.6535Z" fill="#0075FF"/>
<path d="M131.788 10.5132C131.122 9.76399 130.378 9.23599 129.556 8.93126C128.732 8.62652 127.77 8.47366 126.667 8.47366C124.671 8.47366 123.227 8.84879 122.334 9.59804C121.441 10.3483 120.994 11.35 120.994 12.6051C120.994 13.2327 121.103 13.7597 121.323 14.1871C121.542 14.6145 121.882 14.9756 122.347 15.2723C122.81 15.569 123.401 15.8174 124.12 16.0175C124.837 16.2187 125.695 16.4228 126.693 16.632C127.708 16.8412 128.627 17.0675 129.451 17.3119C130.274 17.5563 130.974 17.865 131.552 18.2401C132.129 18.6153 132.576 19.0809 132.891 19.6391C133.206 20.1973 133.364 20.8852 133.364 21.7048C133.364 22.4893 133.206 23.1782 132.891 23.7706C132.576 24.3639 132.129 24.8598 131.552 25.261C130.974 25.6623 130.278 25.963 129.464 26.1632C128.65 26.3633 127.744 26.4639 126.746 26.4639C125.257 26.4639 123.917 26.2336 122.728 25.7709C121.537 25.3093 120.443 24.5983 119.445 23.6398L119.97 22.9861C120.846 23.8752 121.843 24.546 122.964 24.9995C124.084 25.4531 125.354 25.6794 126.772 25.6794C128.522 25.6794 129.901 25.3616 130.908 24.725C131.914 24.0884 132.418 23.1169 132.418 21.8094C132.418 21.1477 132.296 20.5855 132.051 20.1228C131.805 19.6612 131.433 19.269 130.934 18.9462C130.435 18.6233 129.809 18.3447 129.057 18.1094C128.303 17.8741 127.411 17.6518 126.378 17.4426C125.363 17.2334 124.461 17.0152 123.673 16.7889C122.885 16.5626 122.225 16.275 121.69 15.926C121.156 15.578 120.754 15.1506 120.482 14.6447C120.211 14.1388 120.075 13.5032 120.075 12.7359C120.075 11.9162 120.233 11.1891 120.548 10.5525C120.863 9.91585 121.305 9.38483 121.874 8.95741C122.443 8.52998 123.131 8.20312 123.936 7.97683C124.741 7.75055 125.643 7.6369 126.641 7.6369C127.849 7.6369 128.903 7.8119 129.805 8.15987C130.706 8.50886 131.534 9.06602 132.287 9.83338L131.788 10.5132Z" fill="#0075FF"/>
<path d="M142.239 26.5947C141.311 26.5947 140.445 26.4077 139.639 26.0325C138.834 25.6584 138.129 25.1435 137.525 24.4898C136.921 23.8361 136.449 23.0777 136.107 22.2148C135.766 21.3519 135.595 20.4327 135.595 19.4562C135.595 18.4977 135.762 17.5996 136.094 16.7629C136.426 15.9261 136.891 15.1939 137.486 14.5664C138.081 13.9388 138.773 13.442 139.561 13.0759C140.349 12.7098 141.206 12.5268 142.134 12.5268C143.062 12.5268 143.928 12.7098 144.734 13.0759C145.539 13.442 146.24 13.9428 146.835 14.5795C147.43 15.2161 147.903 15.9613 148.253 16.8152C148.604 17.669 148.779 18.5762 148.779 19.5346C148.779 19.5698 148.775 19.6392 148.765 19.7438C148.756 19.8484 148.752 19.9097 148.752 19.9268H136.514C136.567 20.7636 136.76 21.544 137.092 22.2671C137.424 22.9902 137.85 23.6138 138.366 24.1368C138.882 24.6597 139.473 25.0741 140.138 25.3788C140.804 25.6846 141.513 25.8364 142.266 25.8364C142.774 25.8364 143.268 25.771 143.749 25.6403C144.231 25.5096 144.682 25.3225 145.102 25.0781C145.522 24.8347 145.89 24.5421 146.205 24.2021C146.52 23.8622 146.774 23.4921 146.967 23.0908L147.781 23.3C147.588 23.7707 147.304 24.2112 146.927 24.6205C146.55 25.0308 146.117 25.3788 145.627 25.6664C145.137 25.9541 144.603 26.1804 144.025 26.3463C143.447 26.5123 142.853 26.5947 142.239 26.5947ZM147.886 19.1685C147.833 18.3147 147.649 17.5302 147.334 16.8152C147.019 16.1001 146.603 15.4816 146.087 14.9586C145.57 14.4356 144.98 14.0303 144.314 13.7427C143.648 13.4551 142.931 13.3113 142.161 13.3113C141.39 13.3113 140.672 13.4601 140.007 13.7558C139.342 14.0525 138.756 14.4618 138.248 14.9848C137.74 15.5077 137.332 16.1262 137.026 16.8413C136.719 17.5564 136.541 18.3318 136.488 19.1685H147.886Z" fill="#0075FF"/>
<path d="M155.081 26.5947C154.451 26.5947 153.864 26.4861 153.322 26.2679C152.78 26.0496 152.307 25.7539 151.904 25.3788C151.501 25.0047 151.186 24.5642 150.958 24.0583C150.731 23.5524 150.617 23.0033 150.617 22.4109C150.617 21.8357 150.756 21.3087 151.037 20.829C151.317 20.3502 151.707 19.9359 152.206 19.5869C152.705 19.2389 153.3 18.9684 153.992 18.7763C154.683 18.5842 155.449 18.4887 156.29 18.4887C157.042 18.4887 157.813 18.55 158.601 18.6717C159.388 18.7934 160.088 18.9764 160.702 19.2208V17.7565C160.702 16.3968 160.312 15.3116 159.533 14.501C158.754 13.6904 157.708 13.2851 156.395 13.2851C155.729 13.2851 155.025 13.4289 154.28 13.7166C153.536 14.0042 152.78 14.4185 152.009 14.9586L151.589 14.3049C153.356 13.1192 154.976 12.5268 156.447 12.5268C158.04 12.5268 159.296 12.9975 160.216 13.9388C161.135 14.8802 161.594 16.1705 161.594 17.8088V24.9212C161.594 25.3044 161.752 25.4965 162.067 25.4965V26.3332C162.015 26.3503 161.945 26.3594 161.857 26.3594C161.559 26.3594 161.301 26.2508 161.082 26.0325C160.863 25.8143 160.754 25.5488 160.754 25.235V24.0322C160.141 24.8518 159.332 25.4834 158.325 25.9279C157.318 26.3725 156.237 26.5947 155.081 26.5947ZM155.213 25.8364C156.316 25.8364 157.322 25.6313 158.233 25.2219C159.143 24.8126 159.826 24.2585 160.281 23.5615C160.561 23.1954 160.702 22.8464 160.702 22.5155V19.953C159.353 19.43 157.9 19.1685 156.342 19.1685C154.889 19.1685 153.72 19.4612 152.836 20.0445C151.952 20.6288 151.51 21.4093 151.51 22.3848C151.51 22.8726 151.606 23.3262 151.799 23.7445C151.992 24.1629 152.249 24.529 152.573 24.8428C152.898 25.1566 153.287 25.4009 153.742 25.5749C154.198 25.7489 154.688 25.8364 155.213 25.8364Z" fill="#0075FF"/>
</g>
<defs>
<clipPath id="clip0_617_1054">
<rect width="162" height="32" fill="white"/>
</clipPath>
</defs>
</svg>
